HIERARCHY
ROOT Hips
{
    OFFSET 0.0 0.0 0.0
    CHANNELS 6 Xposition Yposition Zposition Zrotation Xrotation Yrotation
    JOINT LeftHipJoint
    {
        OFFSET 0.1 0.0 0.0
        CHANNELS 3 Zrotation Xrotation Yrotation
        JOINT LeftUpLeg
        {
            OFFSET 120.00230837211411 0.0 0.0
            CHANNELS 3 Zrotation Xrotation Yrotation
            JOINT LeftLeg
            {
                OFFSET 0.0 0.0 -387.1759743595619
                CHANNELS 3 Zrotation Xrotation Yrotation
                JOINT LeftFoot
                {
                    OFFSET 0.0 0.0 -380.98720776588823
                    CHANNELS 3 Zrotation Xrotation Yrotation
                    End Site
                    {
                        OFFSET 0.0 -0.1 0.0
                    }
                }
            }
        }
    }
    JOINT LowerBack
    {
        OFFSET 0.0 0.0 0.1
        CHANNELS 3 Zrotation Xrotation Yrotation
        JOINT Spine
        {
            OFFSET 0.0 0.0 220.386383716966
            CHANNELS 3 Zrotation Xrotation Yrotation
            JOINT Spine1
            {
                OFFSET 0.0 0.0 255.08690820080386
                CHANNELS 3 Zrotation Xrotation Yrotation
                JOINT LeftShoulder
                {
                    OFFSET 0.1 0.0 0.0
                    CHANNELS 3 Zrotation Xrotation Yrotation
                    JOINT LeftArm
                    {
                        OFFSET 143.35379676497365 0.0 0.0
                        CHANNELS 3 Zrotation Xrotation Yrotation
                        JOINT LeftForeArm
                        {
                            OFFSET 258.03790501571245 0.0 0.0
                            CHANNELS 3 Zrotation Xrotation Yrotation
                            JOINT LeftHand
                            {
                                OFFSET 236.2122143876709 0.0 0.0
                                CHANNELS 3 Zrotation Xrotation Yrotation
                                End Site
                                {
                                    OFFSET 0.1 0.0 0.0
                                }
                            }
                        }
                    }
                }
                JOINT Neck
                {
                    OFFSET 0.0 0.0 0.1
                    CHANNELS 3 Zrotation Xrotation Yrotation
                    JOINT Neck1
                    {
                        OFFSET 0.0 0.0 109.48985442501827
                        CHANNELS 3 Zrotation Xrotation Yrotation
                        End Site
                        {
                            OFFSET 0.0 0.0 114.07828391949158
                        }
                    }
                }
                JOINT RightShoulder
                {
                    OFFSET -0.1 0.0 0.0
                    CHANNELS 3 Zrotation Xrotation Yrotation
                    JOINT RightArm
                    {
                        OFFSET -143.35379676497365 0.0 0.0
                        CHANNELS 3 Zrotation Xrotation Yrotation
                        JOINT RightForeArm
                        {
                            OFFSET -258.03790501571245 0.0 0.0
                            CHANNELS 3 Zrotation Xrotation Yrotation
                            JOINT RightHand
                            {
                                OFFSET -236.2122143876709 0.0 0.0
                                CHANNELS 3 Zrotation Xrotation Yrotation
                                End Site
                                {
                                    OFFSET -0.1 0.0 0.0
                                }
                            }
                        }
                    }
                }
            }
        }
    }
    JOINT RightHipJoint
    {
        OFFSET -0.1 0.0 0.0
        CHANNELS 3 Zrotation Xrotation Yrotation
        JOINT RightUpLeg
        {
            OFFSET -120.00230837211411 0.0 0.0
            CHANNELS 3 Zrotation Xrotation Yrotation
            JOINT RightLeg
            {
                OFFSET 0.0 0.0 -387.1759743595619
                CHANNELS 3 Zrotation Xrotation Yrotation
                JOINT RightFoot
                {
                    OFFSET 0.0 0.0 -380.98720776588823
                    CHANNELS 3 Zrotation Xrotation Yrotation
                    End Site
                    {
                        OFFSET 0.0 -0.1 0.0
                    }
                }
            }
        }
    }
}
MOTION
Frames: 5
Frame Time: 0.03333333333333333
0.0 0.0 804.520281189497 29.549320009996322 -4.107810232959323 11.793484270463443 -2.758691436281349e-33 -3.975693351829396e-16 -7.951386703658792e-16 -2.1722236657269547 -29.536177985827095 -2.7459788142435886 1.704217183186326 45.63343914282523 2.0208990974574053 0.0 0.0 3.975693351829396e-16 -2.758691436281349e-33 -3.975693351829396e-16 -7.951386703658792e-16 -0.3622370706774537 -5.38110594971304 3.475232346559781 2.39444768938907 7.866582845108573e-16 -4.140961540505514e-16 -6.3611093629270335e-15 3.975693351829396e-16 -3.975693351829396e-16 -3.2752191124913144 11.449014266323523 67.75019707646324 -20.08405434274744 3.57836616321854e-16 -1.1140829122932957e-14 -7.951386703658792e-16 -1.6552148617688095e-32 2.3854160110976376e-15 -6.3611093629270335e-15 3.975693351829396e-16 -3.975693351829396e-16 -18.222622604718275 -0.7286371354067229 -9.722700694252744 -6.3611093629270335e-15 3.975693351829396e-16 -3.975693351829396e-16 52.228095942124135 -50.3861816638301 24.418156280404602 84.13794504148473 -9.999856699610969e-15 -8.112290040590425e-15 0.0 0.0 0.0 -2.758691436281349e-33 -3.975693351829396e-16 -7.951386703658792e-16 -1.9770422027434549 -27.11944155173869 0.1473382351393589 4.959617328055801 47.914242756869214 -4.71497207950037 0.0 0.0 0.0
0.0 0.0 804.520281189497 29.485657421117597 -4.0383859660787635 11.705952463374441 0.0 0.0 -1.987846675914698e-16 -2.145023170484994 -29.470585646691436 -2.689529028651365 1.7024107872941225 45.42682683875738 2.1177438574614955 0.0 -1.5902773407317584e-15 0.0 0.0 0.0 -1.987846675914698e-16 -0.36869390081165665 -5.530493127010099 3.4895850687557424 2.365157129653135 4.347715590333471e-15 -1.282711215233529e-15 -1.3793457181406746e-33 3.9756933518293955e-16 3.9756933518293955e-16 -3.693550077732121 11.904703507374236 67.83182800416608 -20.14172859935689 1.3932462283295481e-14 -1.478761839208914e-14 0.0 0.0 1.1927080055488188e-15 -1.3793457181406746e-33 3.9756933518293955e-16 3.9756933518293955e-16 -18.08071389862804 -0.5849015783285284 -9.586716908407965 -1.3793457181406746e-33 3.9756933518293955e-16 3.9756933518293955e-16 52.23611217939612 -50.91767721098185 24.551942244002507 83.93236050889477 1.2350155200519756e-14 6.003406401577005e-15 1.5902773407317584e-15 0.0 0.0 0.0 0.0 -1.987846675914698e-16 -1.9526924067365243 -27.060181495124354 0.14389976653935777 4.883414842441021 47.78324554619764 -4.522336052458582 0.0 0.0 0.0
0.0 0.0 804.520281189497 29.45521130999027 -4.037871720806134 11.639607461176483 0.0 0.0 0.0 -2.1271305603847415 -29.341863561505328 -2.7156495184892497 1.6424310581826456 45.183665862761416 2.351873900512932 -6.620859447075238e-32 -2.3854160110976376e-15 -3.1805546814635168e-15 0.0 0.0 0.0 -0.3759632546591512 -5.656290470888826 3.4683951103811554 2.437571986573327 2.7231610100675818e-15 -2.841550455028479e-15 0.0 0.0 0.0 -4.0651363000688 12.327630954927427 67.9481801118971 -20.219953891085666 1.5469496663933515e-16 3.662142330782604e-15 1.5902773407317584e-15 -1.3793457181406746e-32 -9.93923337957349e-16 0.0 0.0 0.0 -17.999570657274553 -0.3791329966464676 -9.477020845228878 0.0 0.0 0.0 52.20240503145085 -51.13554543481992 24.54001217648031 83.36146431715237 -1.2020687896494758e-14 -2.3365672886107606e-14 -1.5902773407317584e-15 0.0 0.0 0.0 0.0 0.0 -1.9278037629676608 -26.834850528047525 0.20683014677921935 4.874674942118124 47.46603580760837 -4.397217396777268 0.0 0.0 3.975693351829396e-16
0.0 0.0 804.520281189497 29.42102726843455 -4.0385234197340525 11.570743485703254 -3.1805546814635164e-15 -3.9756933518293955e-16 -5.963540027744093e-16 -2.112961131485038 -29.23775868120899 -2.74713558318151 1.5897995654051715 45.07864359970561 2.5729429224797524 0.0 0.0 -7.951386703658792e-16 -3.1805546814635164e-15 -3.9756933518293955e-16 -5.963540027744093e-16 -0.3795676459808326 -5.723905811271858 3.484336888681921 2.4470245407643256 -8.88338325644743e-16 -4.355287252744217e-15 -4.138037154422024e-33 3.975693351829396e-16 1.1927080055488188e-15 -4.560275940199085 12.685956767912735 68.06398114831183 -20.31010682593604 1.320654186515047e-14 -1.5102993924764547e-14 0.0 0.0 -8.746525374024672e-15 -4.138037154422024e-33 3.975693351829396e-16 1.1927080055488188e-15 -17.884636789863656 -0.3695883384542043 -9.431431624592873 -4.138037154422024e-33 3.975693351829396e-16 1.1927080055488188e-15 52.339072473012465 -51.408506810634854 24.520542423779414 82.85469647303682 -5.699432306675117e-15 -3.4542319139992678e-15 0.0 0.0 0.0 -3.1805546814635164e-15 -3.9756933518293955e-16 -5.963540027744093e-16 -1.9173188423592413 -26.765022292262913 0.2069551385952068 4.840648797615105 47.348318522939316 -4.314881306541571 0.0 0.0 -1.1927080055488188e-15
0.0 0.0 804.520281189497 29.32695561900495 -4.122188375840108 11.50969927899048 0.0 0.0 -3.975693351829396e-16 -2.072135251339973 -28.95782513582742 -2.805541597010407 1.471774856203967 44.822235859139504 2.825616082435826 0.0 0.0 3.975693351829396e-16 0.0 0.0 -3.975693351829396e-16 -0.3756823511818263 -5.710647629287812 3.4489371817494416 2.4923628803918785 7.776577250785561e-16 -8.122434812592105e-16 0.0 0.0 3.975693351829396e-16 -5.071274141557847 12.916127287385025 68.24115014263181 -20.27421354962758 3.530800059004749e-15 9.617488426185479e-15 -4.770832022195275e-15 -1.3241718894150476e-31 3.1805546814635168e-15 0.0 0.0 3.975693351829396e-16 -17.765669977676367 -0.3893997767291514 -9.452268844449758 0.0 0.0 3.975693351829396e-16 52.9692365611051 -51.81675515242119 25.00660152642428 82.31356672972355 -2.68971173131986e-15 -6.097597685684372e-15 0.0 0.0 0.0 0.0 0.0 -3.975693351829396e-16 -1.883927692489893 -26.543211226156078 0.26024404373591326 4.829440949374387 47.207090420117986 -4.395214811385468 0.0 0.0 7.951386703658792e-16
